<svg width="82" height="20" viewBox="0 0 82 20" fill="none" xmlns="http://www.w3.org/2000/svg">
<g clip-path="url(#clip0_105_100)">
<path d="M18.8456 1.30289C19.1373 0.805949 18.6464 0.256446 17.7636 0.0653141C16.8887 -0.122632 15.9294 0.109911 15.6043 0.590926L4.37118 17.2895C3.73853 18.2324 4.13852 19.4047 5.34804 19.8156C6.57191 20.2329 8.07944 19.72 8.67543 18.6991L18.8456 1.30289Z" fill="white"/>
<path d="M0.529038 19.8988C-0.00321702 19.7125 -0.157794 19.1853 0.17367 18.7298L6.55276 9.95363C7.07864 9.23211 6.55276 8.59181 6.55276 8.59181L0.747358 1.47694C0.374461 1.01981 0.796759 0.427305 1.66845 0.148572C2.52898 -0.126977 3.53452 -0.00433374 3.93133 0.428898L9.81481 6.87481C9.81481 6.87481 10.3152 7.42113 9.81481 8.14584L2.08915 19.3892C1.76725 19.8558 1.06767 20.0852 0.529038 19.8988Z" fill="white"/>
<path d="M26.5554 0.0333148C26.141 -0.0511017 25.9227 0.0285365 25.6199 0.257895L15.6202 7.84423C15.6202 7.84423 14.9127 8.39692 15.7621 9.24746L25.4558 19.035C26.3737 19.9604 27.9864 20.2439 28.9983 19.6355C29.9895 19.0382 29.9927 17.8388 29.0461 16.9692L19.0656 7.79326C18.6974 7.454 18.6544 7.35047 19.0321 7.04944L27.1147 0.603524C27.3043 0.418764 26.9697 0.117731 26.5554 0.0317221V0.0333148Z" fill="white"/>
<path d="M60.1591 10.3609C60.3982 10.5998 60.3982 10.9852 60.1591 11.2242C59.9201 11.4615 59.536 11.4615 59.297 11.2242L57.058 8.98633C56.9385 8.86687 56.8795 8.71078 56.8795 8.55469C56.8795 8.3986 56.9385 8.24091 57.058 8.12305L59.297 5.88521C59.536 5.64471 59.9217 5.64471 60.1591 5.88521C60.3982 6.12254 60.3982 6.50958 60.1591 6.7469L58.352 8.55469L60.1591 10.3609Z" fill="white"/>
<path d="M70.0011 6.31364C70.0011 6.65131 69.727 6.92367 69.3907 6.92367C68.4888 6.92367 67.7573 7.65634 67.7573 8.55625V10.7973C67.7573 11.1349 67.4832 11.4073 67.1454 11.4073C66.8075 11.4073 66.5366 11.1349 66.5366 10.7973V8.55625C66.5366 6.9842 67.8163 5.70361 69.3891 5.70361C69.7254 5.70361 69.9995 5.97757 69.9995 6.31364H70.0011Z" fill="white"/>
<path d="M63.2044 5.70361C61.6316 5.70361 60.3503 6.9826 60.3503 8.55625C60.3503 10.1299 61.6316 11.4073 63.2044 11.4073C63.8132 11.4073 64.3789 11.2146 64.8442 10.8865C64.8873 11.1811 65.1406 11.4073 65.4466 11.4073C65.7844 11.4073 66.0554 11.1349 66.0554 10.7973V8.55625C66.0554 6.9842 64.7757 5.70361 63.2044 5.70361ZM63.2044 10.1872C62.3025 10.1872 61.571 9.45617 61.571 8.55625C61.571 7.65634 62.3025 6.92367 63.2044 6.92367C64.1064 6.92367 64.8347 7.65634 64.8347 8.55625C64.8347 9.45617 64.1032 10.1872 63.2044 10.1872Z" fill="white"/>
<path d="M44.1962 6.31364C44.1962 6.65131 43.9221 6.92367 43.5859 6.92367C42.6855 6.92367 41.9525 7.65634 41.9525 8.55625V10.7973C41.9525 11.1349 41.6784 11.4073 41.3406 11.4073C41.0027 11.4073 40.7334 11.1349 40.7334 10.7973V8.55625C40.7334 6.9842 42.013 5.70361 43.5859 5.70361C43.9221 5.70361 44.1962 5.97757 44.1962 6.31364Z" fill="white"/>
<path d="M39.6179 5.70361C39.2801 5.70361 39.006 5.97757 39.006 6.31364V8.61519C39.006 9.5151 38.3351 10.1872 37.4331 10.1872C36.5311 10.1872 35.8618 9.5151 35.8618 8.61519V6.31364C35.8618 5.97757 35.5878 5.70361 35.2515 5.70361C34.9153 5.70361 34.6428 5.97757 34.6428 6.31364V8.61519C34.6428 10.1872 35.8618 11.4073 37.4347 11.4073C39.0076 11.4073 40.2314 10.1888 40.2314 8.61519V6.31364C40.2314 5.97757 39.9573 5.70361 39.6195 5.70361H39.6179Z" fill="white"/>
<path d="M46.7237 5.70358H45.809V4.69218C45.809 4.3561 45.5349 4.08374 45.2002 4.08374C44.8656 4.08374 44.5899 4.3561 44.5899 4.69218V10.7972C44.5899 11.1349 44.8608 11.4073 45.2002 11.4073C45.5396 11.4073 45.809 11.1349 45.809 10.7972V6.92364H46.7237C47.0615 6.92364 47.334 6.64968 47.334 6.31202C47.334 5.97435 47.0599 5.70199 46.7237 5.70199V5.70358Z" fill="white"/>
<path d="M48.4383 5.70361C48.1005 5.70361 47.828 5.97757 47.828 6.31364V10.7973C47.828 11.1349 48.1005 11.4073 48.4383 11.4073C48.7762 11.4073 49.0487 11.1349 49.0487 10.7973V6.31364C49.0487 5.97757 48.7762 5.70361 48.4383 5.70361Z" fill="white"/>
<path d="M48.4384 4.08374C48.0957 4.08374 47.8153 4.36247 47.8153 4.70651C47.8153 5.05055 48.0957 5.3261 48.4384 5.3261C48.781 5.3261 49.0599 5.04896 49.0599 4.70651C49.0599 4.36407 48.781 4.08374 48.4384 4.08374Z" fill="white"/>
<path d="M55.874 5.70361C55.5361 5.70361 55.2652 5.97757 55.2652 6.31364V10.7973C55.2652 11.1349 55.5377 11.4073 55.874 11.4073C56.2102 11.4073 56.4843 11.1349 56.4843 10.7973V6.31364C56.4843 5.97757 56.2118 5.70361 55.874 5.70361Z" fill="white"/>
<path d="M55.2509 4.70651C55.2509 4.36247 55.5314 4.08374 55.8756 4.08374C56.2198 4.08374 56.4987 4.36247 56.4987 4.70651C56.4987 5.05055 56.2198 5.3261 55.8756 5.3261C55.5314 5.3261 55.2509 5.04896 55.2509 4.70651Z" fill="white"/>
<path d="M53.6446 9.70941C53.3498 10.0057 52.9402 10.1872 52.4892 10.1872C51.5889 10.1872 50.8558 9.45776 50.8558 8.55625C50.8558 7.65475 51.5889 6.92367 52.4892 6.92367C52.9402 6.92367 53.3498 7.10684 53.6446 7.4015C53.8836 7.64041 54.2692 7.64041 54.5083 7.4015C54.7457 7.16259 54.7457 6.77714 54.5083 6.53981C53.9904 6.02376 53.278 5.70361 52.4892 5.70361C50.9148 5.70361 49.6367 6.97942 49.6367 8.55625C49.6367 9.92125 50.5992 11.0633 51.8837 11.342C51.8821 11.3643 51.8805 11.385 51.8805 11.4073V12.0157C51.8805 12.3534 53.1012 12.3534 53.1012 12.0157V11.4073C53.1012 11.385 53.0996 11.3643 53.098 11.342C53.6414 11.2241 54.129 10.9518 54.5099 10.5711C54.7473 10.3354 54.7473 9.94833 54.5099 9.71101C54.2708 9.47369 53.8852 9.47369 53.6462 9.71101L53.6446 9.70941Z" fill="white"/>
<path d="M78.4566 5.70361C76.8837 5.70361 75.6041 6.9826 75.6041 8.55625C75.6041 10.1299 76.8821 11.4073 78.4566 11.4073C80.031 11.4073 81.3091 10.1283 81.3091 8.55625C81.3091 6.9842 80.031 5.70361 78.4566 5.70361ZM78.4566 10.1872C77.5562 10.1872 76.8232 9.45617 76.8232 8.55625C76.8232 7.65634 77.5562 6.92367 78.4566 6.92367C79.3569 6.92367 80.09 7.65634 80.09 8.55625C80.09 9.45617 79.3585 10.1872 78.4566 10.1872Z" fill="white"/>
<path d="M75.3029 11.8184C75.3029 13.3952 74.0535 14.671 72.5094 14.671C71.2695 14.671 71.4863 13.8858 71.4863 13.8858C71.4863 13.8858 71.5851 13.4175 72.0663 13.4175C72.1827 13.4175 72.299 13.4509 72.5078 13.4509C73.3778 13.4509 74.0806 12.7167 74.0806 11.8168V10.8898C73.6185 11.2163 73.0544 11.4058 72.4472 11.4058C70.8743 11.4058 69.5947 10.1268 69.5947 8.55479C69.5947 6.98273 70.8743 5.70215 72.4472 5.70215C74.0201 5.70215 75.3013 6.98114 75.3013 8.55479V11.8168L75.3029 11.8184ZM74.0838 8.55638C74.0838 7.65647 73.3524 6.9238 72.4504 6.9238C71.5484 6.9238 70.8186 7.65647 70.8186 8.55638C70.8186 9.45629 71.55 10.1874 72.4504 10.1874C73.3508 10.1874 74.0838 9.45629 74.0838 8.55638Z" fill="white"/>
<path d="M31.3217 13.4508C32.1886 13.4508 32.893 12.7181 32.893 11.8182V10.8912C32.4325 11.2146 31.9289 11.4073 31.3217 11.4073C29.7489 11.4073 28.5298 10.1777 28.5298 8.60404V6.31364C28.5298 5.97757 28.8023 5.70361 29.1401 5.70361C29.478 5.70361 29.7489 5.97757 29.7489 6.31364V8.60404C29.7489 9.50395 30.4198 10.1872 31.3217 10.1872C32.2237 10.1872 32.893 9.5151 32.893 8.61519V6.31364C32.893 5.97757 33.1671 5.70361 33.5033 5.70361C33.8396 5.70361 34.1137 5.97757 34.1137 6.31364V11.8198C34.1137 13.3935 32.8627 14.6725 31.3233 14.6725C30.0819 14.6725 30.3002 13.8872 30.3002 13.8872C30.3002 13.8872 30.3991 13.4174 30.8787 13.4174C30.995 13.4174 31.1114 13.4524 31.3233 13.4524L31.3217 13.4508Z" fill="white"/>
</g>
<defs>
<clipPath id="clip0_105_100">
<rect width="81.3091" height="19.9621" fill="white"/>
</clipPath>
</defs>
</svg>
