<svg width="86" height="17" viewBox="0 0 86 17" fill="none" xmlns="http://www.w3.org/2000/svg">
<path fill-rule="evenodd" clip-rule="evenodd" d="M40.9196 1.55901C40.9196 1.55901 40.1428 0.323696 36.6554 0.0244182C36.6554 0.0244182 32.3806 -0.357639 30.6243 1.90074C30.6243 1.90074 28.469 4.0254 29.2838 9.03884C29.2838 9.03884 29.7862 12.3436 33.567 13.6002H41.8611V5.70645H36.0812V11.0489C36.0812 11.0489 36.0496 11.397 35.488 11.4076C35.488 11.4076 34.9413 11.3949 34.9033 11.0489C34.8653 10.7029 34.9033 3.55844 34.9033 3.55844C34.9033 3.55844 34.935 1.76278 37.6201 1.97715C37.6201 1.97715 39.4778 2.01324 40.9175 3.17426V1.55901H40.9196Z" fill="white"/>
<path fill-rule="evenodd" clip-rule="evenodd" d="M15.9845 0.557129H20.9601L25.4186 4.75975V0.557129H27.7639V13.6022H22.6721L18.6148 9.69466V13.6022H15.9845V0.557129Z" fill="white"/>
<path fill-rule="evenodd" clip-rule="evenodd" d="M0 0.557129V13.6022H2.22922V10.0364L5.14873 12.4157L8.74587 8.83927V13.6022H14.5258V0.557129H9.89426L7.26184 2.93649L4.86163 0.557129H0Z" fill="white"/>
<path fill-rule="evenodd" clip-rule="evenodd" d="M44.1115 3.91504H46.9191V8.903L48.971 6.58095H52.3507L49.7816 9.03885L52.5027 13.6023H49.4079L47.9535 10.7878L46.9191 11.7769V13.6023H44.1115V3.91504Z" fill="white"/>
<path fill-rule="evenodd" clip-rule="evenodd" d="M55.836 8.85423L53.2099 8.58467C53.3091 8.13469 53.4505 7.78022 53.6384 7.5234C53.8242 7.26445 54.0944 7.04158 54.4448 6.85055C54.696 6.71471 55.0422 6.60858 55.4834 6.53217C55.9246 6.45788 56.3996 6.41968 56.9126 6.41968C57.7359 6.41968 58.3966 6.46425 58.8948 6.55552C59.393 6.64679 59.8089 6.83357 60.1424 7.12012C60.3767 7.31751 60.5604 7.59981 60.6955 7.96276C60.8306 8.32572 60.8981 8.67381 60.8981 9.00493V12.1081C60.8981 12.4392 60.9192 12.6981 60.9615 12.8849C61.0037 13.0717 61.0966 13.3116 61.2422 13.6023H58.6668C58.5634 13.4219 58.4958 13.2861 58.4642 13.1927C58.4325 13.0993 58.4008 12.9507 58.3692 12.7491C58.0082 13.0866 57.6514 13.3285 57.2968 13.475C56.8112 13.6681 56.2455 13.7658 55.6016 13.7658C54.7467 13.7658 54.0965 13.5705 53.6532 13.1821C53.2099 12.7937 52.9882 12.314 52.9882 11.7451C52.9882 11.2102 53.1487 10.7709 53.4674 10.427C53.7862 10.0832 54.3773 9.82635 55.2364 9.65867C56.2666 9.45491 56.9358 9.3127 57.2419 9.23204C57.548 9.15138 57.871 9.04313 58.2151 8.91154C58.2151 8.58042 58.1454 8.34906 58.0061 8.21747C57.8667 8.08587 57.6219 8.01795 57.2714 8.01795C56.8218 8.01795 56.4861 8.08799 56.2603 8.2302C56.0851 8.34057 55.9436 8.54858 55.836 8.85635V8.85423ZM58.2129 10.2593C57.8351 10.3931 57.4403 10.5098 57.0287 10.6138C56.4693 10.7603 56.1167 10.9046 55.9668 11.0468C55.8148 11.1933 55.7367 11.3609 55.7367 11.5477C55.7367 11.7621 55.8127 11.9362 55.9626 12.072C56.1125 12.2078 56.3363 12.2758 56.6276 12.2758C56.9189 12.2758 57.2187 12.2015 57.4825 12.055C57.7464 11.9086 57.9322 11.7281 58.0441 11.518C58.1538 11.3058 58.2108 11.032 58.2108 10.6945V10.2615L58.2129 10.2593Z" fill="white"/>
<path fill-rule="evenodd" clip-rule="evenodd" d="M62.5531 6.58099H65.1285V7.72504C65.3776 7.22836 65.6331 6.88451 65.897 6.69985C66.1608 6.51307 66.4859 6.41968 66.8743 6.41968C67.2628 6.41968 67.7251 6.54278 68.2085 6.79324L67.3557 8.70141C67.0306 8.56981 66.7751 8.50189 66.5851 8.50189C66.2242 8.50189 65.9434 8.64834 65.7471 8.93913C65.4621 9.34878 65.3206 10.1171 65.3206 11.2442V13.6023H62.5552V6.58099H62.5531Z" fill="white"/>
<path fill-rule="evenodd" clip-rule="evenodd" d="M73.8913 6.58109H76.4604V13.2055L76.4668 13.5154C76.4668 13.9569 76.3718 14.375 76.1797 14.7741C75.9876 15.1731 75.7342 15.4957 75.4176 15.742C75.1009 15.9882 74.6977 16.1665 74.2101 16.2768C73.7225 16.3872 73.163 16.4424 72.5318 16.4424C71.0921 16.4424 70.1042 16.2301 69.5659 15.8078C69.0297 15.3854 68.7595 14.8187 68.7595 14.1076C68.7595 14.0185 68.7637 13.8996 68.7722 13.751L71.4405 14.0482C71.508 14.288 71.6115 14.4557 71.7508 14.547C71.9534 14.6828 72.2068 14.7507 72.5129 14.7507C72.9076 14.7507 73.2053 14.6489 73.3995 14.4408C73.5958 14.235 73.6929 13.8762 73.6929 13.3626V12.3034C73.4227 12.6155 73.1525 12.8426 72.8823 12.9848C72.4601 13.2055 72.002 13.3159 71.5122 13.3159C70.5538 13.3159 69.7791 12.9062 69.1901 12.0848C68.7722 11.5033 68.5632 10.7328 68.5632 9.7755C68.5632 8.6824 68.8334 7.84824 69.3738 7.27516C69.9142 6.70207 70.6193 6.41553 71.4932 6.41553C72.0505 6.41553 72.5107 6.50892 72.8738 6.69358C73.2348 6.87824 73.5747 7.18389 73.8892 7.61264V6.57896L73.8913 6.58109ZM71.3032 9.98139C71.3032 10.4887 71.413 10.8644 71.6347 11.1106C71.8542 11.3547 72.1455 11.4778 72.5065 11.4778C72.8675 11.4778 73.1356 11.3504 73.3678 11.0978C73.6 10.8431 73.7161 10.4611 73.7161 9.94955C73.7161 9.43802 73.5937 9.04535 73.3509 8.77367C73.1082 8.50198 72.8105 8.36614 72.458 8.36614C72.1054 8.36614 71.8268 8.49137 71.6178 8.73971C71.4088 8.99017 71.3032 9.40406 71.3032 9.98139Z" fill="white"/>
<path fill-rule="evenodd" clip-rule="evenodd" d="M77.7735 10.1107C77.7735 9.03882 78.1429 8.15584 78.8796 7.45965C79.6164 6.76558 80.6128 6.41748 81.8667 6.41748C83.3001 6.41748 84.383 6.82501 85.1155 7.64218C85.7045 8.30017 86 9.10886 86 10.0704C86 11.1507 85.6348 12.0358 84.9044 12.7278C84.174 13.4176 83.1628 13.7636 81.873 13.7636C80.7225 13.7636 79.7916 13.477 79.0823 12.904C78.2104 12.1929 77.7735 11.2632 77.7735 10.1107ZM80.5241 10.1086C80.5241 10.7368 80.6529 11.1996 80.9104 11.501C81.168 11.8024 81.493 11.9509 81.8815 11.9509C82.2699 11.9509 82.5992 11.8024 82.8525 11.5073C83.1059 11.2123 83.2325 10.7368 83.2325 10.0831C83.2325 9.47394 83.1037 9.01971 82.8483 8.72043C82.5929 8.42116 82.2783 8.27258 81.9005 8.27258C81.5015 8.27258 81.1722 8.42328 80.9125 8.7268C80.6529 9.03032 80.522 9.49092 80.522 10.1086H80.5241Z" fill="white"/>
</svg>
